<svg xmlns="http://www.w3.org/2000/svg" viewBox="0 0 95 88" fill="none">
  <path d="M47.21 76.5C65.3786 76.5 80.21 61.6685 80.21 43.5C80.21 25.3315 65.3786 10.5 47.21 10.5C29.0415 10.5 14.21 25.3315 14.21 43.5C14.21 61.6685 29.0415 76.5 47.21 76.5Z" fill="#FFD21E"/>
  <path d="M47.21 66C59.7024 66 69.81 55.8924 69.81 43.4C69.81 30.9076 59.7024 20.8 47.21 20.8C34.7176 20.8 24.61 30.9076 24.61 43.4C24.61 55.8924 34.7176 66 47.21 66Z" fill="#FF9D0B"/>
  <path d="M37 38C38.6569 38 40 36.6569 40 35C40 33.3431 38.6569 32 37 32C35.3431 32 34 33.3431 34 35C34 36.6569 35.3431 38 37 38Z" fill="#3A3B45"/>
  <path d="M57 38C58.6569 38 60 36.6569 60 35C60 33.3431 58.6569 32 57 32C55.3431 32 54 33.3431 54 35C54 36.6569 55.3431 38 57 38Z" fill="#3A3B45"/>
  <path d="M47 56C52.5228 56 57 51.5228 57 46H37C37 51.5228 41.4772 56 47 56Z" fill="#3A3B45"/>
</svg>
